Coordinates
version=1
nRows=6
nColumns=36
inDegrees=yes

Units are S.I. units (second, meters, Newtons, ...)
If the header above contains a line with 'inDegrees', this indicates whether rotational values are in degrees (yes) or radians (no).

endheader
time	pelvis_tilt	pelvis_list	pelvis_rotation	pelvis_tx	pelvis_ty	pelvis_tz	hip_flexion_r	hip_adduction_r	hip_rotation_r	knee_angle_r	knee_angle_r_beta	ankle_angle_r	subtalar_angle_r	mtp_angle_r	hip_flexion_l	hip_adduction_l	hip_rotation_l	knee_angle_l	knee_angle_l_beta	ankle_angle_l	subtalar_angle_l	mtp_angle_l	lumbar_extension	lumbar_bending	lumbar_rotation	arm_flex_r	arm_add_r	arm_rot_r	elbow_flex_r	pro_sup_r	arm_flex_l	arm_add_l	arm_rot_l	elbow_flex_l	pro_sup_l
      5.01666670	      3.12088837	      7.74134207	     -1.42280739	      0.75008746	      0.92670206	     -0.11081125	     11.91884852	      0.42452006	     -3.83469116	     39.42076152	      0.68802208	     20.18738544	    -16.88985788	     -7.49999987	     31.74879649	      1.58357441	      5.39090699	      6.01789050	      0.10503200	      4.08983311	    -12.93932591	     -7.49999987	    -15.97859733	     -2.88038331	     -0.52921999	     50.52393991	      9.32835212	     73.57844059	    115.54588232	     90.00667927	     39.68129266	     10.95354445	     74.71897061	    119.32788953	     69.50626947
      5.03333330	      3.18757450	      7.71104098	     -1.27189536	      0.74852793	      0.91732039	     -0.10855381	     13.02694735	      0.54964488	     -4.01837399	     41.46839883	      0.72376010	     20.84189217	    -17.20548383	     -7.49999987	     32.16918600	      1.41729602	      5.70501594	      6.22137209	      0.10858343	      3.96192342	    -13.22347035	     -7.49999987	    -16.89320119	     -3.28917354	     -1.04724448	     50.47281519	      9.60150312	     73.78914878	    115.68818731	     88.04180655	     39.84641349	     10.48407465	     74.74565240	    119.37299636	     69.12669222
      5.05000000	      3.18010706	      7.67644507	     -1.02001083	      0.74778098	      0.91510303	     -0.10887497	     14.41010563	      0.68671014	     -3.81506536	     43.82887049	      0.76495810	     20.77248151	    -18.12320464	     -7.49999987	     32.69093578	      1.41405423	      6.48078991	      6.37313069	      0.11123211	      3.62315382	    -13.81933926	     -7.49999987	    -17.69754369	     -3.63528556	     -1.56864161	     50.41215014	      9.80970487	     73.71684140	    115.97744735	     86.58087152	     40.08176745	     10.44176825	     75.07544587	    119.38065630	     68.61158912
      5.06666670	      2.98920345	      7.60851748	     -0.68080862	      0.74196145	      0.91140902	     -0.10520931	     15.93237563	      1.03027068	     -3.60421336	     45.81874508	      0.79968796	     20.97207841	    -18.77392715	     -7.49999987	     33.49906423	      1.30694776	      6.75360032	      6.55719858	      0.11444470	      3.51788931	    -13.48790053	     -7.49999987	    -18.31298171	     -4.02336403	     -1.85909566	     50.39572002	     10.08061622	     73.22568387	    116.17962710	     85.76402001	     40.31442313	     10.33134795	     74.92248686	    119.66651727	     68.30583227
      5.08333330	      3.05338657	      7.79927712	     -0.25563673	      0.74510779	      0.91033520	     -0.10746121	     16.18815739	      0.94477060	     -3.59030219	     46.57253412	      0.81284406	     21.31223428	    -19.29225186	     -7.49999987	     33.76488327	      1.68710105	      7.35087335	      6.50604149	      0.11355185	      3.36520310	    -13.22597782	     -7.49999987	    -19.05417280	     -4.39136786	     -2.05801499	     50.25749946	      9.87188886	     73.26491070	    115.97967222	     85.85923419	     40.17638515	     10.40992280	     74.98746321	    119.77993171	     68.35322897
      5.10000000	      2.93428903	      8.05961596	     -0.03586139	      0.74265280	      0.90447936	     -0.10595156	     17.04056120	      0.85928314	     -3.41345032	     47.88307524	      0.83571732	     21.99264581	    -19.88565510	     -7.49999987	     34.38135523	      1.94909575	      7.71789288	      6.76593065	      0.11808777	      3.14468939	    -13.51755299	     -7.49999987	    -19.72813504	     -4.86170803	     -2.76344565	     50.31266871	     10.17406283	     73.14721120	    115.77668093	     89.39111510	     40.33766483	     10.20697471	     74.75229368	    119.87414996	     69.91094387
